<svg xmlns="http://www.w3.org/2000/svg" xmlns:xlink="http://www.w3.org/1999/xlink" width="1024" height="1024" viewBox="0 0 1024 1024"><path fill="#1A3254" d="M503.917 322.215C508.118 321.738 516.736 322.062 521.109 322.214C555.916 323.421 601.451 337.524 630.516 356.625L630.488 402.621C630.539 428.826 631.321 447.128 623.657 472.702C607.426 526.86 565.833 560.591 517.948 586.462L512.058 589.498C490.463 581.276 456.995 556.127 440.392 539.653C385.514 485.198 393.228 426.791 393.375 356.298C426.87 336.045 464.833 324.34 503.917 322.215Z"/><path fill="white" d="M408.667 365.217C445.334 346.095 489.378 333.437 530.959 338.507C534.134 338.276 536.004 338.479 539.129 339.163C544.393 340.54 549.727 341.527 555.064 342.584C558.236 343.138 560.077 343.468 563.178 344.399C571.418 346.931 580.077 349.593 588.025 352.946C590.899 353.948 593.71 354.848 596.443 356.192C602.773 359.137 608.965 361.9 615.006 365.412L614.99 417.168C614.976 419.798 615.053 423.068 614.935 425.641C611.996 475.838 599.964 503.742 562.031 538.193C552.783 546.591 544.638 552.284 534.112 559.128C532.604 560.168 528.46 563.06 526.904 563.663C522.019 566.613 517.032 569.392 511.953 571.995C504.897 568.634 499.354 564.758 492.687 561.138C490.956 560.338 486.329 557.115 484.498 555.9C471.04 547.118 458.772 536.636 447.997 524.714C445.704 522.578 441.756 518.024 439.795 515.525C424.361 496.973 418.462 481.219 411.958 458.606C410.88 456.372 410.963 452.564 410.904 450.022C407.32 428.191 408.654 388.472 408.667 365.217Z"/><path fill="white" d="M408.667 365.217C445.334 346.095 489.378 333.437 530.959 338.507C534.134 338.276 536.004 338.479 539.129 339.163C544.393 340.54 549.727 341.527 555.064 342.584L554.894 384.321C545.072 395.702 531.755 408.744 521.136 419.967L481.305 420.013C467.582 433.327 453.795 448.022 440.139 461.685L440.108 497.485C440.112 500.734 440.276 512.906 439.795 515.525C424.361 496.973 418.462 481.219 411.958 458.606C410.88 456.372 410.963 452.564 410.904 450.022C407.32 428.191 408.654 388.472 408.667 365.217Z"/><path fill="#1DCEC0" d="M530.959 338.507C534.134 338.276 536.004 338.479 539.129 339.163L539.199 380.958C533.572 387.478 520.075 401.083 513.638 406.538C506.611 406.565 468.915 407.548 465.541 405.252C459.058 396.259 482.142 398.339 485.828 398.371L510.602 398.438C517.409 391.799 524.342 384.507 530.988 377.654C531.081 364.605 531.071 351.556 530.959 338.507Z"/><path fill="#1DCEC0" d="M439.266 432.123C434.375 424.216 431.466 414.311 441.291 408.563C444.685 406.565 448.74 406.014 452.544 407.034C465.715 410.583 468.789 433.736 447.317 434.952C440.011 443.219 432.277 451.098 424.149 458.558C420.207 458.567 415.863 458.482 411.958 458.606C410.88 456.372 410.963 452.564 410.904 450.022L420.912 450.103L439.266 432.123Z"/><path fill="white" d="M446.328 414.834C449.66 413.607 453.356 415.318 454.575 418.653C455.794 421.988 454.072 425.68 450.734 426.89C447.408 428.095 443.734 426.382 442.519 423.059C441.305 419.737 443.008 416.058 446.328 414.834Z"/><path fill="#1DCEC0" d="M500.708 351.077C507.002 350.435 513.192 352.232 516.332 358.208C519.894 364.987 517.232 374.655 510.008 377.839C504.683 380.186 500.392 378.647 495.323 376.748L486 385.999L451.793 386.006C447.335 394.748 442.767 397.62 432.896 395.782C426.704 392.659 422.594 388.39 423.295 380.947C423.677 376.73 425.79 372.859 429.13 370.255C438.399 363.116 446.661 369.41 452.034 377.503L482.68 377.57C485.856 374.878 487.835 372.935 490.739 369.926C488.024 359.36 491.408 355.319 500.708 351.077Z"/><path fill="white" d="M502.101 358.686C505.542 357.671 509.155 359.638 510.17 363.08C511.185 366.522 509.218 370.135 505.776 371.15C502.334 372.164 498.722 370.197 497.707 366.756C496.692 363.314 498.659 359.701 502.101 358.686Z"/><path fill="white" d="M436.349 375.713C439.824 374.891 443.308 377.04 444.133 380.514C444.958 383.988 442.813 387.474 439.34 388.303C435.861 389.133 432.369 386.984 431.543 383.505C430.716 380.025 432.869 376.536 436.349 375.713Z"/><path fill="white" d="M555.064 342.584C558.236 343.138 560.077 343.468 563.178 344.399C571.418 346.931 580.077 349.593 588.025 352.946C590.899 353.948 593.71 354.848 596.443 356.192C602.773 359.137 608.965 361.9 615.006 365.412L614.99 417.168C614.976 419.798 615.053 423.068 614.935 425.641C606.594 425.268 597.611 425.449 589.211 425.479C581.64 432.875 573.238 442.276 565.774 449.136C542.335 449.021 517.305 449.414 494.033 448.842C485.826 457.009 478.099 465.781 469.906 474.104L469.984 502.126C477.662 509.543 485.274 517.027 492.82 524.578C492.862 532.396 493.495 554.214 492.687 561.138C490.956 560.338 486.329 557.115 484.498 555.9C471.04 547.118 458.772 536.636 447.997 524.714C445.704 522.578 441.756 518.024 439.795 515.525C440.276 512.906 440.112 500.734 440.108 497.485L440.139 461.685C453.795 448.022 467.582 433.327 481.305 420.013L521.136 419.967C531.755 408.744 545.072 395.702 554.894 384.321L555.064 342.584Z"/><path fill="#1DCEC0" d="M584.844 417.427L614.99 417.168C614.976 419.798 615.053 423.068 614.935 425.641C606.594 425.268 597.611 425.449 589.211 425.479C581.64 432.875 573.238 442.276 565.774 449.136C542.335 449.021 517.305 449.414 494.033 448.842C485.826 457.009 478.099 465.781 469.906 474.104L469.984 502.126C477.662 509.543 485.274 517.027 492.82 524.578C492.862 532.396 493.495 554.214 492.687 561.138C490.956 560.338 486.329 557.115 484.498 555.9L484.487 528.475C479.155 522.403 464.652 509.541 461.596 504.633L461.552 470.278C471.252 460.415 480.895 450.497 490.482 440.524C514.234 440.48 537.986 440.606 561.736 440.902C569.725 433.266 577.149 425.352 584.844 417.427Z"/><path fill="#1DCEC0" d="M555.064 342.584C558.236 343.138 560.077 343.468 563.178 344.399C563.222 357.607 562.823 374.555 563.593 387.458C557.135 395.542 547.26 404.637 539.918 412.28C535.816 416.551 527.999 424.959 523.883 428.285L484.862 428.392C472.682 440.519 459.738 453.115 448.052 465.697C448.694 484.651 448.126 505.651 447.997 524.714C445.704 522.578 441.756 518.024 439.795 515.525C440.276 512.906 440.112 500.734 440.108 497.485L440.139 461.685C453.795 448.022 467.582 433.327 481.305 420.013L521.136 419.967C531.755 408.744 545.072 395.702 554.894 384.321L555.064 342.584Z"/><path fill="#1DCEC0" d="M588.025 352.946C590.899 353.948 593.71 354.848 596.443 356.192C595.696 358.629 596.333 382.183 596.348 385.821C591.636 391.34 552.899 431.24 549.794 432.363C548.583 432.801 547.575 432.774 546.439 432.121C545.373 431.507 544.463 430.515 544.486 429.229C544.516 427.543 546.074 425.608 547.075 424.384C551.205 419.335 556.255 414.757 560.846 410.113C569.998 400.968 579.054 391.727 588.012 382.391L588.025 352.946Z"/><path fill="#1DCEC0" d="M476.852 487.788C478.541 485.99 479.42 484.743 481.885 484.527C484.874 485.548 509.691 511.535 513.55 515.517C513.424 523.354 513.51 531.438 513.492 539.296C520.229 546.047 527.103 552.659 534.112 559.128C532.604 560.168 528.46 563.06 526.904 563.663C520.189 557.344 511.253 549.32 505.651 542.225L505.69 518.885C498.062 511.008 481.389 496.889 476.852 487.788Z"/><path fill="#1DCEC0" d="M508.07 458.148C520.831 458.08 527.063 467.176 522.458 479.056C529.113 486.992 538.16 495.34 545.641 502.791C549.797 501.982 552.842 501.294 557.023 502.811C564.618 505.567 569.224 514.906 565.643 522.418C563.477 526.96 559.671 529.244 555.037 530.797C540.502 531.539 536.081 521.148 539.87 508.409C532.092 500.93 524.29 493.073 516.598 485.478C516.2 485.584 515.802 485.685 515.403 485.782C510.617 486.934 506.475 487.169 502.15 484.377C498.82 482.195 496.507 478.765 495.731 474.859C493.957 465.997 499.422 459.472 508.07 458.148Z"/><path fill="white" d="M549.983 510.241C553.414 509.016 557.185 510.823 558.379 514.264C559.573 517.706 557.732 521.46 554.281 522.624C550.872 523.772 547.175 521.96 545.996 518.562C544.816 515.164 546.596 511.45 549.983 510.241Z"/><path fill="white" d="M508.577 466.106C511.955 465.501 515.205 467.678 515.932 471.031C516.658 474.385 514.6 477.712 511.275 478.558C509.015 479.134 506.621 478.429 505.033 476.721C503.445 475.013 502.917 472.574 503.655 470.362C504.394 468.15 506.282 466.517 508.577 466.106Z"/><path fill="#1DCEC0" d="M579.572 456.55C581.382 456.456 584.047 456.243 585.764 456.675C600.941 460.502 601.488 481.699 585.721 485.302C575.653 487.602 574.021 480.014 566.745 475.918C566.743 475.917 564.012 475.896 563.711 475.893C558.367 475.999 537.626 477.429 536.277 471.219C537.647 467.238 540.03 466.705 543.899 466.662C552.03 466.572 560.277 466.798 568.397 466.95C571.432 461.653 573.925 458.84 579.572 456.55Z"/><path fill="white" d="M581.667 464.756C585.088 464.042 588.458 466.167 589.29 469.56C590.121 472.954 588.113 476.396 584.751 477.343C582.47 477.986 580.02 477.333 578.362 475.641C576.703 473.948 576.1 471.486 576.789 469.219C577.477 466.951 579.348 465.24 581.667 464.756Z"/><path fill="white"/></svg>