<?xml version="1.0" encoding="utf-8" ?><svg xmlns="http://www.w3.org/2000/svg" xmlns:xlink="http://www.w3.org/1999/xlink" width="1024" height="1024" viewBox="0 0 1024 1024"><path fill="white" d="M0 0L1024 0L1024 1024L0 1024L0 0Z"/><path fill="#1A3254" d="M503.917 322.215C508.118 321.738 516.736 322.062 521.109 322.214C555.916 323.421 601.451 337.524 630.516 356.625L630.488 402.621C630.539 428.826 631.321 447.128 623.657 472.702C607.426 526.86 565.833 560.591 517.948 586.462L512.058 589.498C490.463 581.276 456.995 556.127 440.392 539.653C385.514 485.198 393.228 426.791 393.375 356.298C426.87 336.045 464.833 324.34 503.917 322.215Z"/><path fill="white" d="M408.667 365.217C445.334 346.095 489.378 333.437 530.959 338.507C534.134 338.276 536.004 338.479 539.129 339.163C544.393 340.54 549.727 341.527 555.064 342.584C558.236 343.138 560.077 343.468 563.178 344.399C571.418 346.931 580.077 349.593 588.025 352.946C590.899 353.948 593.71 354.848 596.443 356.192C602.773 359.137 608.965 361.9 615.006 365.412L614.99 417.168C614.976 419.798 615.053 423.068 614.935 425.641C611.996 475.838 599.964 503.742 562.031 538.193C552.783 546.591 544.638 552.284 534.112 559.128C532.604 560.168 528.46 563.06 526.904 563.663C522.019 566.613 517.032 569.392 511.953 571.995C504.897 568.634 499.354 564.758 492.687 561.138C490.956 560.338 486.329 557.115 484.498 555.9C471.04 547.118 458.772 536.636 447.997 524.714C445.704 522.578 441.756 518.024 439.795 515.525C424.361 496.973 418.462 481.219 411.958 458.606C410.88 456.372 410.963 452.564 410.904 450.022C407.32 428.191 408.654 388.472 408.667 365.217Z"/><path fill="white" d="M408.667 365.217C445.334 346.095 489.378 333.437 530.959 338.507C534.134 338.276 536.004 338.479 539.129 339.163C544.393 340.54 549.727 341.527 555.064 342.584L554.894 384.321C545.072 395.702 531.755 408.744 521.136 419.967L481.305 420.013C467.582 433.327 453.795 448.022 440.139 461.685L440.108 497.485C440.112 500.734 440.276 512.906 439.795 515.525C424.361 496.973 418.462 481.219 411.958 458.606C410.88 456.372 410.963 452.564 410.904 450.022C407.32 428.191 408.654 388.472 408.667 365.217Z"/><path fill="#1DCEC0" d="M530.959 338.507C534.134 338.276 536.004 338.479 539.129 339.163L539.199 380.958C533.572 387.478 520.075 401.083 513.638 406.538C506.611 406.565 468.915 407.548 465.541 405.252C459.058 396.259 482.142 398.339 485.828 398.371L510.602 398.438C517.409 391.799 524.342 384.507 530.988 377.654C531.081 364.605 531.071 351.556 530.959 338.507Z"/><path fill="#1DCEC0" d="M439.266 432.123C434.375 424.216 431.466 414.311 441.291 408.563C444.685 406.565 448.74 406.014 452.544 407.034C465.715 410.583 468.789 433.736 447.317 434.952C440.011 443.219 432.277 451.098 424.149 458.558C420.207 458.567 415.863 458.482 411.958 458.606C410.88 456.372 410.963 452.564 410.904 450.022L420.912 450.103L439.266 432.123Z"/><path fill="white" d="M446.328 414.834C449.66 413.607 453.356 415.318 454.575 418.653C455.794 421.988 454.072 425.68 450.734 426.89C447.408 428.095 443.734 426.382 442.519 423.059C441.305 419.737 443.008 416.058 446.328 414.834Z"/><path fill="#1DCEC0" d="M500.708 351.077C507.002 350.435 513.192 352.232 516.332 358.208C519.894 364.987 517.232 374.655 510.008 377.839C504.683 380.186 500.392 378.647 495.323 376.748L486 385.999L451.793 386.006C447.335 394.748 442.767 397.62 432.896 395.782C426.704 392.659 422.594 388.39 423.295 380.947C423.677 376.73 425.79 372.859 429.13 370.255C438.399 363.116 446.661 369.41 452.034 377.503L482.68 377.57C485.856 374.878 487.835 372.935 490.739 369.926C488.024 359.36 491.408 355.319 500.708 351.077Z"/><path fill="white" d="M502.101 358.686C505.542 357.671 509.155 359.638 510.17 363.08C511.185 366.522 509.218 370.135 505.776 371.15C502.334 372.164 498.722 370.197 497.707 366.756C496.692 363.314 498.659 359.701 502.101 358.686Z"/><path fill="white" d="M436.349 375.713C439.824 374.891 443.308 377.04 444.133 380.514C444.958 383.988 442.813 387.474 439.34 388.303C435.861 389.133 432.369 386.984 431.543 383.505C430.716 380.025 432.869 376.536 436.349 375.713Z"/><path fill="white" d="M555.064 342.584C558.236 343.138 560.077 343.468 563.178 344.399C571.418 346.931 580.077 349.593 588.025 352.946C590.899 353.948 593.71 354.848 596.443 356.192C602.773 359.137 608.965 361.9 615.006 365.412L614.99 417.168C614.976 419.798 615.053 423.068 614.935 425.641C606.594 425.268 597.611 425.449 589.211 425.479C581.64 432.875 573.238 442.276 565.774 449.136C542.335 449.021 517.305 449.414 494.033 448.842C485.826 457.009 478.099 465.781 469.906 474.104L469.984 502.126C477.662 509.543 485.274 517.027 492.82 524.578C492.862 532.396 493.495 554.214 492.687 561.138C490.956 560.338 486.329 557.115 484.498 555.9C471.04 547.118 458.772 536.636 447.997 524.714C445.704 522.578 441.756 518.024 439.795 515.525C440.276 512.906 440.112 500.734 440.108 497.485L440.139 461.685C453.795 448.022 467.582 433.327 481.305 420.013L521.136 419.967C531.755 408.744 545.072 395.702 554.894 384.321L555.064 342.584Z"/><path fill="#1DCEC0" d="M584.844 417.427L614.99 417.168C614.976 419.798 615.053 423.068 614.935 425.641C606.594 425.268 597.611 425.449 589.211 425.479C581.64 432.875 573.238 442.276 565.774 449.136C542.335 449.021 517.305 449.414 494.033 448.842C485.826 457.009 478.099 465.781 469.906 474.104L469.984 502.126C477.662 509.543 485.274 517.027 492.82 524.578C492.862 532.396 493.495 554.214 492.687 561.138C490.956 560.338 486.329 557.115 484.498 555.9L484.487 528.475C479.155 522.403 464.652 509.541 461.596 504.633L461.552 470.278C471.252 460.415 480.895 450.497 490.482 440.524C514.234 440.48 537.986 440.606 561.736 440.902C569.725 433.266 577.149 425.352 584.844 417.427Z"/><path fill="#1DCEC0" d="M555.064 342.584C558.236 343.138 560.077 343.468 563.178 344.399C563.222 357.607 562.823 374.555 563.593 387.458C557.135 395.542 547.26 404.637 539.918 412.28C535.816 416.551 527.999 424.959 523.883 428.285L484.862 428.392C472.682 440.519 459.738 453.115 448.052 465.697C448.694 484.651 448.126 505.651 447.997 524.714C445.704 522.578 441.756 518.024 439.795 515.525C440.276 512.906 440.112 500.734 440.108 497.485L440.139 461.685C453.795 448.022 467.582 433.327 481.305 420.013L521.136 419.967C531.755 408.744 545.072 395.702 554.894 384.321L555.064 342.584Z"/><path fill="#1DCEC0" d="M588.025 352.946C590.899 353.948 593.71 354.848 596.443 356.192C595.696 358.629 596.333 382.183 596.348 385.821C591.636 391.34 552.899 431.24 549.794 432.363C548.583 432.801 547.575 432.774 546.439 432.121C545.373 431.507 544.463 430.515 544.486 429.229C544.516 427.543 546.074 425.608 547.075 424.384C551.205 419.335 556.255 414.757 560.846 410.113C569.998 400.968 579.054 391.727 588.012 382.391L588.025 352.946Z"/><path fill="#1DCEC0" d="M476.852 487.788C478.541 485.99 479.42 484.743 481.885 484.527C484.874 485.548 509.691 511.535 513.55 515.517C513.424 523.354 513.51 531.438 513.492 539.296C520.229 546.047 527.103 552.659 534.112 559.128C532.604 560.168 528.46 563.06 526.904 563.663C520.189 557.344 511.253 549.32 505.651 542.225L505.69 518.885C498.062 511.008 481.389 496.889 476.852 487.788Z"/><path fill="#1DCEC0" d="M508.07 458.148C520.831 458.08 527.063 467.176 522.458 479.056C529.113 486.992 538.16 495.34 545.641 502.791C549.797 501.982 552.842 501.294 557.023 502.811C564.618 505.567 569.224 514.906 565.643 522.418C563.477 526.96 559.671 529.244 555.037 530.797C540.502 531.539 536.081 521.148 539.87 508.409C532.092 500.93 524.29 493.073 516.598 485.478C516.2 485.584 515.802 485.685 515.403 485.782C510.617 486.934 506.475 487.169 502.15 484.377C498.82 482.195 496.507 478.765 495.731 474.859C493.957 465.997 499.422 459.472 508.07 458.148Z"/><path fill="white" d="M549.983 510.241C553.414 509.016 557.185 510.823 558.379 514.264C559.573 517.706 557.732 521.46 554.281 522.624C550.872 523.772 547.175 521.96 545.996 518.562C544.816 515.164 546.596 511.45 549.983 510.241Z"/><path fill="white" d="M508.577 466.106C511.955 465.501 515.205 467.678 515.932 471.031C516.658 474.385 514.6 477.712 511.275 478.558C509.015 479.134 506.621 478.429 505.033 476.721C503.445 475.013 502.917 472.574 503.655 470.362C504.394 468.15 506.282 466.517 508.577 466.106Z"/><path fill="#1DCEC0" d="M579.572 456.55C581.382 456.456 584.047 456.243 585.764 456.675C600.941 460.502 601.488 481.699 585.721 485.302C575.653 487.602 574.021 480.014 566.745 475.918C566.743 475.917 564.012 475.896 563.711 475.893C558.367 475.999 537.626 477.429 536.277 471.219C537.647 467.238 540.03 466.705 543.899 466.662C552.03 466.572 560.277 466.798 568.397 466.95C571.432 461.653 573.925 458.84 579.572 456.55Z"/><path fill="white" d="M581.667 464.756C585.088 464.042 588.458 466.167 589.29 469.56C590.121 472.954 588.113 476.396 584.751 477.343C582.47 477.986 580.02 477.333 578.362 475.641C576.703 473.948 576.1 471.486 576.789 469.219C577.477 466.951 579.348 465.24 581.667 464.756Z"/><path fill="#1A3254" d="M554.771 632.235L563.012 632.184L563.023 683.735L552.96 683.8L552.999 651.45C549.318 657.061 540.737 674.825 536.405 677.804C535.609 678.352 534.508 678.676 533.564 678.446C529.019 677.338 518.531 657.444 515.496 652.386L515.451 661.843L515.429 683.871L505.209 683.914C504.392 668.577 505.014 648.241 505.045 632.545L514.122 632.486C520.269 641.198 528.789 656.069 533.759 665.588C539.56 656.547 547.402 641.866 553.579 632.552C553.976 632.446 554.374 632.34 554.771 632.235Z"/><path fill="#1A3254" d="M680.537 628.733L691.053 628.536L690.999 683.946C687.936 684.033 684.85 684.219 681.809 683.887C681.343 683.015 681.313 682.768 681.11 681.824L680.907 680.856L680.211 680.583C676.789 681.192 675.975 682.372 672.978 683.81C668.94 685.747 663.686 684.067 659.683 682.687C635.15 668.228 654.183 630.356 680.285 648.202L680.537 628.733Z"/><path fill="white" d="M667.198 652.521C672.157 652.402 676.509 653.866 679.106 658.402C680.73 661.299 681.038 664.753 679.952 667.893C678.609 671.862 676.123 673.786 672.529 675.494C667.388 675.753 663.387 674.904 660.562 670.08C658.874 667.162 658.484 663.669 659.487 660.45C660.877 656.084 663.315 654.389 667.198 652.521Z"/><path fill="#1A3254" d="M740.586 632.669L751.143 632.608C759.157 649.583 766.917 666.675 774.422 683.88L762.869 684.009C760.83 680.223 759.476 676.552 757.971 672.538L750.617 672.501L733.402 672.49L728.578 683.874C725.063 684.031 720.936 683.954 717.372 683.973C724.751 667.309 732.638 648.984 740.586 632.669Z"/><path fill="white" d="M745.517 643.843C748.809 649.765 751.604 657.78 753.937 664.228L746.402 664.328L737.489 664.208C739.57 658.002 743.116 650.5 745.517 643.843Z"/><path fill="#1A3254" d="M248.777 631.601C257.667 631.197 262.856 631.954 270.95 636.049C269.898 638.768 268.895 641.821 267.924 644.596C261.397 641.74 243.834 636.554 241.964 647.141C243.824 655.595 272.536 653.13 273.325 667.199C274.09 680.818 264.077 683.663 253.119 684.915C244.377 685.164 238.306 683.501 230.858 679.209C231.956 676.1 232.995 673.842 234.375 670.858C240.702 673.831 246.65 676.39 253.828 675.753C257.585 675.419 262.73 673.65 262.285 669.086C257.322 661.592 233.918 663.596 231.672 650.313C229.625 638.199 238.505 633.523 248.777 631.601Z"/><path fill="#1A3254" d="M472.065 643.629C489.026 642.695 493.524 652.587 495.193 667.351C491.255 667.345 465.906 666.676 464.615 668.496C465.707 678.187 479.235 676.133 485.42 672.992C486.453 672.467 486.703 672.845 487.525 673.315L492.871 678.379C483.892 684.639 472.728 687.76 462.805 681.384C457.825 678.211 454.396 673.101 453.349 667.289C452.375 662.072 453.529 656.682 456.554 652.322C460.385 646.909 465.767 644.63 472.065 643.629Z"/><path fill="white" d="M471.851 652.084C479.843 652.052 482.305 653.46 484.725 660.874L475.088 660.888L462.833 660.869C465.451 655.751 466.925 654.545 471.851 652.084Z"/><path fill="#1A3254" d="M295.411 643.574C313.316 642.683 319.042 650.805 320.545 667.385C315.581 667.211 293.378 666.658 289.829 667.9C288.971 671.056 293.914 674.557 296.633 675.334C302.314 676.956 306.367 674.894 311.236 672.296C313.053 673.787 315.809 676.72 317.568 678.497C309.972 684.448 300.3 686.98 291.128 683.002C285.74 680.675 281.559 676.216 279.586 670.688C274.922 657.374 282.954 647.417 295.411 643.574Z"/><path fill="white" d="M296.966 652.056C305.167 651.64 307.224 654.08 310.516 660.982L303.25 661.014C300.336 661.093 289.63 662.279 289.783 657.63C291.431 654.996 294.267 653.471 296.966 652.056Z"/><path fill="#1A3254" d="M599.851 643.73C602.073 643.699 607.521 643.335 609.122 644.454C609.345 646.166 609.172 646.322 610.005 647.753C613.929 647.41 615.438 643.373 621.473 643.4C643.65 643.497 640.026 667.864 639.438 683.878L628.495 683.982L628.714 666.522C628.626 662.094 628.864 658.018 625.358 654.763C623.688 653.225 621.464 652.433 619.198 652.567C606.915 653.318 609.54 675.971 609.838 683.983L599.206 683.988C599.295 670.816 599.085 657.634 599.21 644.469C599.424 644.222 599.637 643.976 599.851 643.73Z"/><path fill="#1A3254" d="M401.607 644.09L412.014 644.049L411.992 656.25L412.109 683.967C409.373 683.996 404.697 684.187 402.162 683.753C401.899 682.495 401.865 681.663 401.028 680.696C397.431 681.313 395.486 684.307 391.005 684.635C367.941 686.323 372.112 659.178 372.02 644.084L382.796 644.059C382.729 648.502 381.562 669.696 385.323 672.234C403.928 684.787 402.094 654.089 401.607 644.09Z"/><path fill="#1A3254" d="M342.263 643.595C354.223 643.028 358.948 643.705 365.889 654.114C362.566 655.408 360.909 656.146 358.165 658.422C338.029 639.409 328.763 671.224 345.623 675.693C349.199 676.641 354.433 672.772 357.201 670.35C357.128 670.331 365.473 674.316 366.084 674.598C363.401 678.264 359.807 681.318 355.631 683.15C350.34 685.513 344.32 685.648 338.928 683.526C333.505 681.434 329.213 677.157 327.102 671.742C325.06 666.28 325.294 660.227 327.753 654.94C330.846 648.392 335.838 645.777 342.263 643.595Z"/><path fill="#1A3254" d="M780.574 632.474L791.954 632.447C791.774 643.747 791.717 654.942 791.858 666.241C791.931 672.134 791.48 677.954 791.897 683.851L780.654 683.966C781.081 667.008 780.663 649.486 780.574 632.474Z"/><path fill="#1A3254" d="M443.691 643.632C444.127 643.577 444.563 643.528 445.001 643.487C447.216 643.298 447.059 643.334 448.242 644.359C449.232 646.62 448.788 650.625 448.752 653.376C430.668 653.17 434.682 671.459 434.975 684.039C431.546 684.117 428.552 684.004 425.123 683.858C423.973 680.74 424.489 649.338 424.503 644.066C427.352 643.908 431.294 643.441 433.739 644.707C434.312 646.245 434.481 647.006 434.83 648.568C435.765 648.443 440.303 644.626 443.691 643.632Z"/><path fill="#1A3254" d="M576.576 644.049L587.54 644.044C587.618 657.342 587.584 670.639 587.435 683.936L576.54 683.936L576.576 644.049Z"/><path fill="#1A3254" d="M580.647 625.726C584.051 625.04 587.391 627.158 588.222 630.529C589.053 633.9 587.08 637.328 583.747 638.302C581.461 638.97 578.992 638.331 577.318 636.637C575.643 634.942 575.033 632.466 575.728 630.188C576.424 627.91 578.312 626.197 580.647 625.726Z"/></svg>